<svg width="235" height="21" viewBox="0 0 235 21" fill="none" xmlns="http://www.w3.org/2000/svg">
<path d="M10.172 20.392C7.33467 20.392 4.936 19.4307 2.976 17.508C1.03467 15.5667 0.0640001 13.1307 0.0640001 10.2C0.0640001 7.32533 1.044 4.908 3.004 2.948C4.98267 0.987999 7.44667 0.0079987 10.396 0.0079987C13.8867 0.0079987 16.6307 1.38933 18.628 4.152L14.652 7.232C13.4387 5.72 12.0013 4.964 10.34 4.964C8.97733 4.964 7.85733 5.468 6.98 6.476C6.10267 7.484 5.664 8.72533 5.664 10.2C5.664 11.6933 6.10267 12.944 6.98 13.952C7.85733 14.9413 8.97733 15.436 10.34 15.436C11.292 15.436 12.104 15.24 12.776 14.848C13.448 14.4373 14.1107 13.84 14.764 13.056L18.852 15.968C17.8253 17.368 16.6307 18.46 15.268 19.244C13.9053 20.0093 12.2067 20.392 10.172 20.392ZM25.9771 20V5.16H20.0971V0.399999H37.2891V5.16H31.4091V20H25.9771ZM39.6735 20V0.399999H55.4375V5.02H45.0495V7.988H54.4575V12.272H45.0495V15.38H55.5775V20H39.6735ZM58.3493 20V0.399999H63.7813V7.736H70.7533V0.399999H76.1853V20H70.7533V12.552H63.7813V20H58.3493ZM78.0821 20L86.4261 0.259999H91.6621L100.006 20H94.1821L92.7541 16.5H85.1941L83.7941 20H78.0821ZM86.7901 12.272H91.1861L89.0021 6.7L86.7901 12.272ZM109.674 20V0.399999H127.23V20H121.798V5.16H115.106V20H109.674ZM129.133 20L137.477 0.259999H142.713L151.057 20H145.233L143.805 16.5H136.245L134.845 20H129.133ZM137.841 12.272H142.237L140.053 6.7L137.841 12.272ZM152.959 20V0.399999H158.699L163.375 7.988L168.051 0.399999H173.791V20H168.387V8.744L163.375 16.416H163.263L158.279 8.8V20H152.959ZM176.371 20L181.047 13.168C178.359 12.0293 177.015 10.004 177.015 7.092C177.015 4.908 177.771 3.24667 179.283 2.108C180.814 0.969332 182.765 0.399999 185.135 0.399999H194.403V20H188.971V14.064H186.591L182.643 20H176.371ZM185.387 9.892H188.971V5.02H185.415C184.501 5.02 183.782 5.23467 183.259 5.664C182.737 6.09333 182.475 6.7 182.475 7.484C182.475 8.212 182.727 8.8 183.231 9.248C183.754 9.67733 184.473 9.892 185.387 9.892ZM202.672 20V5.16H196.792V0.399999H213.984V5.16H208.104V20H202.672ZM216.369 20V0.399999H221.745V11.432L229.333 0.399999H234.401V20H229.025V8.968L221.437 20H216.369Z" fill="#DC5A52"/>
</svg>
