<svg width="144" height="12" viewBox="0 0 144 12" fill="none" xmlns="http://www.w3.org/2000/svg">
<path d="M3.668 11V2.796H0.56V1.2H8.512V2.796H5.404V11H3.668ZM16.7081 11.168C15.7375 11.168 14.9255 10.874 14.2721 10.286C13.6281 9.68867 13.2361 8.928 13.0961 8.004H11.8221V11H10.1421V3.608H11.8221V6.604H13.0961C13.2455 5.69867 13.6468 4.952 14.3001 4.364C14.9628 3.76667 15.7748 3.468 16.7361 3.468C17.8281 3.468 18.7148 3.83667 19.3961 4.574C20.0775 5.31133 20.4181 6.226 20.4181 7.318C20.4181 8.39133 20.0728 9.30133 19.3821 10.048C18.6915 10.7947 17.8001 11.168 16.7081 11.168ZM16.7361 9.698C17.3708 9.698 17.8608 9.474 18.2061 9.026C18.5608 8.56867 18.7381 7.99933 18.7381 7.318C18.7381 6.646 18.5515 6.08133 18.1781 5.624C17.8141 5.16667 17.3241 4.938 16.7081 4.938C16.0735 4.938 15.5835 5.162 15.2381 5.61C14.8928 6.058 14.7201 6.62733 14.7201 7.318C14.7201 7.99 14.9021 8.55467 15.2661 9.012C15.6301 9.46933 16.1201 9.698 16.7361 9.698ZM22.146 11V3.608H23.826L26.136 7.038L28.46 3.608H30.14V11H28.432V6.072L26.108 9.39L23.798 6.1V11H22.146ZM35.6512 11.168C34.5686 11.168 33.6632 10.8087 32.9352 10.09C32.2166 9.37133 31.8572 8.44267 31.8572 7.304C31.8572 6.23067 32.1979 5.32067 32.8792 4.574C33.5606 3.82733 34.4239 3.454 35.4692 3.454C36.5892 3.454 37.4572 3.83667 38.0732 4.602C38.6986 5.358 39.0112 6.30067 39.0112 7.43C39.0112 7.63533 39.0019 7.794 38.9832 7.906H33.5512C33.6446 8.494 33.8826 8.956 34.2652 9.292C34.6479 9.61867 35.1192 9.782 35.6792 9.782C36.4072 9.782 37.0746 9.488 37.6812 8.9L38.6752 9.782C37.9099 10.706 36.9019 11.168 35.6512 11.168ZM33.5372 6.786H37.3312C37.2752 6.21667 37.0839 5.75 36.7572 5.386C36.4306 5.022 35.9966 4.84 35.4552 4.84C34.9419 4.84 34.5126 5.022 34.1672 5.386C33.8219 5.74067 33.6119 6.20733 33.5372 6.786ZM40.7124 11V3.608H42.4064V6.604H45.6684V3.608H47.3624V11H45.6684V8.018H42.4064V11H40.7124ZM52.9058 11.168C51.8138 11.168 50.9038 10.7993 50.1758 10.062C49.4478 9.31533 49.0838 8.41 49.0838 7.346V7.318C49.0838 6.254 49.4478 5.344 50.1758 4.588C50.9131 3.832 51.8278 3.454 52.9198 3.454C54.1144 3.454 55.0991 3.87867 55.8738 4.728L54.8238 5.862C54.2358 5.246 53.5964 4.938 52.9058 4.938C52.2991 4.938 51.7904 5.16667 51.3798 5.624C50.9784 6.08133 50.7778 6.63667 50.7778 7.29V7.318C50.7778 7.99 50.9831 8.55467 51.3938 9.012C51.8138 9.46933 52.3458 9.698 52.9898 9.698C53.6711 9.698 54.3104 9.39 54.9078 8.774L55.9298 9.782C55.5284 10.23 55.0898 10.5753 54.6138 10.818C54.1471 11.0513 53.5778 11.168 52.9058 11.168ZM57.4195 11V3.608H59.0995V7.15L62.3195 3.608H64.3075L61.4375 6.716L64.5455 11H62.5435L60.3035 7.948L59.0995 9.222V11H57.4195ZM71.9203 11H70.2403V10.09C69.643 10.7993 68.845 11.154 67.8463 11.154C67.109 11.154 66.4836 10.9533 65.9703 10.552C65.4663 10.1413 65.2143 9.572 65.2143 8.844C65.2143 8.05067 65.4896 7.44867 66.0403 7.038C66.591 6.62733 67.3143 6.422 68.2103 6.422C68.929 6.422 69.6103 6.52467 70.2543 6.73V6.59C70.2543 6.07667 70.0956 5.68467 69.7783 5.414C69.4703 5.14333 69.0223 5.008 68.4343 5.008C67.7623 5.008 67.0576 5.162 66.3203 5.47L65.8583 4.112C66.773 3.70133 67.711 3.496 68.6723 3.496C69.7456 3.496 70.553 3.76667 71.0943 4.308C71.645 4.84933 71.9203 5.61933 71.9203 6.618V11ZM70.2823 8.326V7.906C69.7783 7.71 69.2136 7.612 68.5883 7.612C68.0563 7.612 67.641 7.71467 67.3423 7.92C67.0436 8.12533 66.8943 8.41467 66.8943 8.788C66.8943 9.124 67.0296 9.39 67.3003 9.586C67.571 9.782 67.9116 9.88 68.3223 9.88C68.8916 9.88 69.3583 9.73533 69.7223 9.446C70.0956 9.15667 70.2823 8.78333 70.2823 8.326ZM73.2631 11L75.3071 8.228C74.7844 8.06933 74.3644 7.80333 74.0471 7.43C73.7391 7.04733 73.5851 6.576 73.5851 6.016C73.5851 5.288 73.8418 4.70467 74.3551 4.266C74.8684 3.82733 75.5824 3.608 76.4971 3.608H80.2071V11H78.5131V8.508H77.0011L75.2511 11H73.2631ZM76.7351 7.234H78.5131V4.98H76.7211C76.2731 4.98 75.9184 5.08267 75.6571 5.288C75.4051 5.484 75.2791 5.75467 75.2791 6.1C75.2791 6.45467 75.4098 6.73467 75.6711 6.94C75.9418 7.136 76.2964 7.234 76.7351 7.234ZM90.0409 11.168C88.9209 11.168 87.9876 10.7947 87.2409 10.048C86.4942 9.30133 86.1209 8.39133 86.1209 7.318C86.1209 6.24467 86.4989 5.33467 87.2549 4.588C88.0109 3.832 88.9489 3.454 90.0689 3.454C91.1889 3.454 92.1222 3.82733 92.8689 4.574C93.6249 5.32067 94.0029 6.23533 94.0029 7.318C94.0029 8.382 93.6249 9.292 92.8689 10.048C92.1129 10.7947 91.1702 11.168 90.0409 11.168ZM90.0689 9.698C90.7409 9.698 91.2822 9.46933 91.6929 9.012C92.1036 8.55467 92.3089 7.99 92.3089 7.318C92.3089 6.65533 92.0942 6.09533 91.6649 5.638C91.2356 5.17133 90.6942 4.938 90.0409 4.938C89.3782 4.938 88.8416 5.16667 88.4309 5.624C88.0202 6.08133 87.8149 6.646 87.8149 7.318C87.8149 7.97133 88.0296 8.53133 88.4589 8.998C88.8882 9.46467 89.4249 9.698 90.0689 9.698ZM99.3401 9.698C99.9654 9.698 100.474 9.48333 100.866 9.054C101.267 8.61533 101.468 8.074 101.468 7.43C101.468 6.79533 101.258 6.25867 100.838 5.82C100.427 5.372 99.9187 5.148 99.3121 5.148C98.6961 5.148 98.1874 5.36733 97.7861 5.806C97.3941 6.24467 97.1981 6.786 97.1981 7.43C97.1981 8.06467 97.4034 8.60133 97.8141 9.04C98.2247 9.47867 98.7334 9.698 99.3401 9.698ZM99.3121 11.168C98.1174 11.168 97.1841 10.79 96.5121 10.034C95.8401 9.278 95.5041 8.21867 95.5041 6.856C95.5041 6.41733 95.5134 6.03467 95.5321 5.708C95.5601 5.372 95.6067 5.01267 95.6721 4.63C95.7374 4.238 95.8354 3.89733 95.9661 3.608C96.1061 3.31867 96.2787 3.04333 96.4841 2.782C96.6987 2.51133 96.9694 2.28733 97.2961 2.11C97.6321 1.92333 98.0194 1.78333 98.4581 1.69L102.49 0.85L102.77 2.208L98.7381 3.09C98.0661 3.23 97.5854 3.482 97.2961 3.846C97.0067 4.20067 96.8387 4.64867 96.7921 5.19C97.0161 4.81667 97.3661 4.49467 97.8421 4.224C98.3274 3.944 98.9247 3.804 99.6341 3.804C100.595 3.804 101.421 4.154 102.112 4.854C102.812 5.54467 103.162 6.394 103.162 7.402C103.162 8.438 102.793 9.32467 102.056 10.062C101.328 10.7993 100.413 11.168 99.3121 11.168ZM104.832 11.084C104.562 11.084 104.23 11.0513 103.838 10.986L103.964 9.6C104.114 9.63733 104.277 9.656 104.454 9.656C104.65 9.656 104.809 9.628 104.93 9.572C105.061 9.516 105.192 9.376 105.322 9.152C105.462 8.91867 105.57 8.592 105.644 8.172C105.719 7.752 105.78 7.164 105.826 6.408C105.873 5.64267 105.896 4.70933 105.896 3.608H111.482V11H109.788V5.064H107.478C107.478 6.11867 107.436 7.01467 107.352 7.752C107.268 8.48933 107.156 9.07267 107.016 9.502C106.886 9.93133 106.699 10.2673 106.456 10.51C106.223 10.7433 105.985 10.8973 105.742 10.972C105.5 11.0467 105.196 11.084 104.832 11.084ZM119.813 11H118.133V10.09C117.536 10.7993 116.738 11.154 115.739 11.154C115.002 11.154 114.376 10.9533 113.863 10.552C113.359 10.1413 113.107 9.572 113.107 8.844C113.107 8.05067 113.382 7.44867 113.933 7.038C114.484 6.62733 115.207 6.422 116.103 6.422C116.822 6.422 117.503 6.52467 118.147 6.73V6.59C118.147 6.07667 117.988 5.68467 117.671 5.414C117.363 5.14333 116.915 5.008 116.327 5.008C115.655 5.008 114.95 5.162 114.213 5.47L113.751 4.112C114.666 3.70133 115.604 3.496 116.565 3.496C117.638 3.496 118.446 3.76667 118.987 4.308C119.538 4.84933 119.813 5.61933 119.813 6.618V11ZM118.175 8.326V7.906C117.671 7.71 117.106 7.612 116.481 7.612C115.949 7.612 115.534 7.71467 115.235 7.92C114.936 8.12533 114.787 8.41467 114.787 8.788C114.787 9.124 114.922 9.39 115.193 9.586C115.464 9.782 115.804 9.88 116.215 9.88C116.784 9.88 117.251 9.73533 117.615 9.446C117.988 9.15667 118.175 8.78333 118.175 8.326ZM125.244 11.168C124.152 11.168 123.242 10.7993 122.514 10.062C121.786 9.31533 121.422 8.41 121.422 7.346V7.318C121.422 6.254 121.786 5.344 122.514 4.588C123.251 3.832 124.166 3.454 125.258 3.454C126.452 3.454 127.437 3.87867 128.212 4.728L127.162 5.862C126.574 5.246 125.934 4.938 125.244 4.938C124.637 4.938 124.128 5.16667 123.718 5.624C123.316 6.08133 123.116 6.63667 123.116 7.29V7.318C123.116 7.99 123.321 8.55467 123.732 9.012C124.152 9.46933 124.684 9.698 125.328 9.698C126.009 9.698 126.648 9.39 127.246 8.774L128.268 9.782C127.866 10.23 127.428 10.5753 126.952 10.818C126.485 11.0513 125.916 11.168 125.244 11.168ZM131.339 11V5.064H128.959V3.608H135.427V5.064H133.047V11H131.339ZM136.771 11V3.608H138.465V6.198H140.159C141.036 6.198 141.746 6.394 142.287 6.786C142.828 7.178 143.099 7.76133 143.099 8.536C143.099 9.30133 142.847 9.90333 142.343 10.342C141.839 10.7807 141.153 11 140.285 11H136.771ZM138.465 9.628H140.061C140.49 9.628 140.822 9.53467 141.055 9.348C141.288 9.16133 141.405 8.89067 141.405 8.536C141.405 8.20933 141.284 7.95733 141.041 7.78C140.808 7.60267 140.472 7.514 140.033 7.514H138.465V9.628Z" fill="#DC5A52"/>
</svg>
